<mxfile host="app.diagrams.net" modified="2023-09-25T09:50:38.293Z" agent="Mozilla/5.0 (X11; Linux x86_64) AppleWebKit/537.36 (KHTML, like Gecko) Chrome/116.0.0.0 Safari/537.36" version="21.8.2" etag="i_3-_onOc5uvl7saTMAR" type="github">
  <diagram name="Page-1" id="yXxPugw68y-Nb1k1JvN4">
    <mxGraphModel>
      <root>
        <mxCell id="0" />
        <mxCell id="1" parent="0" />
      </root>
    </mxGraphModel>
  </diagram>
</mxfile>
